<svg width="115" height="114" viewBox="0 0 115 114" fill="none" xmlns="http://www.w3.org/2000/svg">
<rect width="113.432" height="112.709" rx="56.3543" transform="matrix(0.999965 -0.00837608 0.00976189 0.999952 0 0.950195)" fill="#B87457"/>
<rect x="35.603" y="82.7192" width="43.1827" height="7" rx="3.5" fill="#F4EBD9" fill-opacity="0.95"/>
<path d="M32.3643 39.2192C32.3643 37.2862 33.9313 35.7192 35.8643 35.7192H77.4448C79.3778 35.7192 80.9448 37.2862 80.9448 39.2192C80.9448 41.1522 79.3778 42.7192 77.4448 42.7192H35.8643C33.9313 42.7192 32.3643 41.1522 32.3643 39.2192Z" fill="#F4EBD9" fill-opacity="0.95"/>
<path d="M28.046 29.2192C28.046 27.2862 29.613 25.7192 31.546 25.7192H82.8426C84.7756 25.7192 86.3426 27.2862 86.3426 29.2192C86.3426 31.1522 84.7756 32.7192 82.8426 32.7192H31.546C29.613 32.7192 28.046 31.1522 28.046 29.2192Z" fill="#F4EBD9" fill-opacity="0.95"/>
<path d="M68.2283 39.8735C69.8852 39.8735 71.2283 41.2167 71.2283 42.8735V82.5659C71.228 84.2225 69.885 85.5659 68.2283 85.5659H46.16C44.5033 85.5659 43.1603 84.2225 43.16 82.5659V42.8735C43.16 41.2167 44.5031 39.8735 46.16 39.8735H68.2283ZM49.6375 48.1812C48.445 48.1812 47.4783 49.1479 47.4783 50.3403V76.4839C47.4788 77.676 48.4453 78.6431 49.6375 78.6431C50.8296 78.643 51.7962 77.6759 51.7967 76.4839V50.3403C51.7967 49.1479 50.8299 48.1812 49.6375 48.1812ZM57.1941 48.1812C56.0018 48.1813 55.035 49.1479 55.035 50.3403V76.4839C55.0354 77.6759 56.002 78.643 57.1941 78.6431C58.3863 78.6431 59.3529 77.676 59.3533 76.4839V50.3403C59.3533 49.1479 58.3866 48.1812 57.1941 48.1812ZM64.7518 48.1812C63.5594 48.1812 62.5928 49.1471 62.5926 50.3394V76.4829C62.5926 77.6754 63.5593 78.6421 64.7518 78.6421C65.944 78.6418 66.91 77.6752 66.91 76.4829V50.3394C66.9097 49.1473 65.9438 48.1814 64.7518 48.1812Z" fill="#F4EBD9" fill-opacity="0.95"/>
<ellipse cx="36.6826" cy="40.7192" rx="5.39783" ry="5" fill="#F4EBD9" fill-opacity="0.95"/>
<ellipse cx="77.7061" cy="40.7192" rx="5.39783" ry="5" fill="#F4EBD9" fill-opacity="0.95"/>
</svg>
